<svg id="Warstwa_1" data-name="Warstwa 1" xmlns="http://www.w3.org/2000/svg" viewBox="0 0 483.23 119.23"><defs><style>.cls-1,.cls-3{fill:#1a2b68;}.cls-1{fill-rule:evenodd;}.cls-2{fill:none;stroke:#1a2b68;stroke-miterlimit:10;stroke-width:0.5px;}</style></defs><path id="path4066" class="cls-1" d="M40.81,7.31l-.54-.07a4.2,4.2,0,0,0-1.62.36l-.31.14.29.2a1.86,1.86,0,0,0,1.52.35,1.38,1.38,0,0,0,.8-.72l.1-.23ZM79.09,42.78h0c-1.58.08-5.67-.82-9.3-11.11-.19-.53-.48-.81-.78-.76s-.6.63-.6,1.58v0c0,3.21.4,14,5.52,18.24a7.56,7.56,0,0,0,6.37,1.51C79.51,55.05,78,56.81,76.15,57c-2.48.24-5.18-2.37-7.59-7.38-.59-1.25-1.38-3.71-2.21-6.3-1.8-5.52-3-9.17-4-9.55a.76.76,0,0,0-.77.07c-.42.33-.88,1.35-.16,6.37.6,3.44,1.88,5.45,3,6.29-1.49.31-4,.25-7.23-9.93-.36-1.1-.75-1.63-1.19-1.6s-.78.94-.89,1.68a14.72,14.72,0,0,0,1.18,5.94c-2.15-1.83-5.95-6.8-4.55-11.08a11.23,11.23,0,0,0,1.43,2.13l.11.12.14-.1,1.9-1.43L58,33.66l.18.1.08-.19.89-2.07,2.69,1,.18.07.06-.19.59-1.78L65,31.85l.22.11,0-.24.6-2.67,2.86,1.24.26.11V26.89h3v-2.1l2.3-.25.17,0v-.17l-.1-4.62a1.35,1.35,0,0,0-.48-1,.67.67,0,0,0-.62,0,1.59,1.59,0,0,0-1.07,1.15,1.2,1.2,0,0,0,.61,1.05v1.87c-.06.09-.49.59-2.24,0l-.25-.08V23c0,2-.38,2.24-2.31,2.49l-.12,0,0,.11c-.29.87-.53,1.51-1,1.7s-1.06,0-2-.52l-.23-.12,0,.25c0,.22-.07.42-.1.63-.11.74-.2,1.32-.54,1.48s-.89,0-1.78-.52L62,28.41l-.08.22-.15.5c-.22.77-.44,1.49-.83,1.59s-.85-.23-1.56-.92l-.16-.16-.13.18c-.84,1.18-1.6,1.76-2.25,1.72-.49,0-1-.42-1.36-1.17l-.11-.22-.18.18c-.74.74-1.25,1-1.67,1s-.74-.39-1.17-1.11v0a4.38,4.38,0,0,0-.7-.49l-.24-.15c.12,0,.33,0,.67,0h.07c2.13,0,7.81,0,11.8-2.69,4.37-2.93,8.85-6.33,7.09-9.61,0-.47.21-.7.69-1.19a3.11,3.11,0,0,0,.52-1.89A1.75,1.75,0,0,0,71.9,13l-.14-.14-.12.14a2.29,2.29,0,0,0-.52.84,2.16,2.16,0,0,1-1.21,1.28c-.24-.49-.43-.9-.57-1.24-.39-.87-.58-1.31-1.19-1.31H68v.19a3.83,3.83,0,0,0,.2,1,2.7,2.7,0,0,1,.15,1.59,3.37,3.37,0,0,0-1.89,2.43V18l.24-.07a6.52,6.52,0,0,0,.74-.28,1.46,1.46,0,0,1,.43-.14s.06.06.06.38,0,.41,0,.6a2.11,2.11,0,0,0,.59,2l.23.23.08-.31C69.18,18.74,69.9,18,70.08,18c0,0,0,.06,0,.27,0,1.15-.3,2.69-2.71,4.46-1.64,1.2-5.88,4.07-9.84,4.74l-.78.14c-2.87.5-4.64.78-5.87-1,2.1-.12,13.31-1,16.36-5.3l.07-.11L67.27,21c-.72-1-2.42-3.94-1.61-6.41.47-1.42,1.71-2.42,3.69-3a5.09,5.09,0,0,1,4.37,1.13,8,8,0,0,1,3,5.77c0,1.92.36,8.28,3,9.77a2.92,2.92,0,0,0,2.85-.14,3.52,3.52,0,0,1-2.06,2.74c-1.29.4-2.9-.46-4.65-2.5-.19-.2-.48-.43-.77-.31s-.41.55-.41,1.43c0,.08.16,8,3.73,10.55a4.26,4.26,0,0,0,3.79.53,3.55,3.55,0,0,1-3.11,2.16ZM65.66,46.36h0l-.09-.14-.23-.33-.1-.16-.19-.29-.1-.17L64.8,45l-.09-.16-.15-.24-.09-.15a2.53,2.53,0,0,0-.13-.22,1,1,0,0,0-.07-.15l-.11-.2a1.47,1.47,0,0,0-.06-.14l-.11-.2a1,1,0,0,0-.05-.12l-.08-.19s0-.12,0-.12-.07-.15-.08-.17l0-.1h0l-.07-.15,0-.07v0h0l-.05-.16a.31.31,0,0,1,0-.07l0-.15v0h0l0-.07,0-.13a.45.45,0,0,1,0-.08v-.2l0-.11v-.35s0-.09,0-.09h0l0-.09v0s0,0,0-.08h0l0-.08,0-.07,0,0,0,0h0l0,0v0h0l0,0,0,0h.09A36.61,36.61,0,0,1,66,46.79l-.31-.43Zm-10.16,6h0l.13.13.13-.13.11-.12C57.12,51,58.67,49.5,60,49.79c.7.15,1.29.85,1.76,2-1.13,0-3.29.35-3.29,1.46a.81.81,0,0,0,.23.62,1.62,1.62,0,0,0,1.28.16c.21,0,.42-.05.61-.05.85,0,3.42,0,3.42,2s-.88,2.35-1.43,2.43A2.42,2.42,0,0,0,62,56.57c-.5-.59-1.58-1.25-3.86-1.06l-.28,0,.13.25c.08.16.19.35.31.58s.12.23.19.35h0l0,0c.75,1.4,1.92,3.78,1.2,4.91-.32.49-1,.7-2,.67a4.22,4.22,0,0,0-1.08-4.4c-.87-.86-2-1.83-3-1.75a1.65,1.65,0,0,0-1.21.77,1.14,1.14,0,0,0,0,1.33A2.06,2.06,0,0,0,54,59a2.24,2.24,0,0,1-1.38.8,2.75,2.75,0,0,1-2.22-1,2.06,2.06,0,0,1-.42-2c.38-1.36,1.75-2.43,3.79-3l.14,0v-.15A6.29,6.29,0,0,0,51.67,49l-.13-.14-.13.13-.09.09c-.28.28-.59.58-.93.51-.61-.12-1.37-1.26-2.24-3.38v0l0,0c-.27-.49,1.22-5.7,1.5-6.07l0,0s0,0,0,0c.08-.29.3-.73.5-.75s.3,0,.67.78c.15.31.32.63.49,1,.92,1.76,2,3.75,1.65,5.72s2.27,5.38,2.53,5.63ZM60,57.09h0a1.39,1.39,0,0,1,.65.36,1.81,1.81,0,0,1,.46.94A3.47,3.47,0,0,0,60,57.09ZM47.52,36.2h0l-.22-.15-.06.27a14.94,14.94,0,0,1-1.3,3.77c-.25-.42-.51-.91-.76-1.39a9.5,9.5,0,0,0-1.38-2.26l-.23-.23-.08.3c-.27,1-.43,1.7-.55,2.29a4.59,4.59,0,0,1-.49,1.54,14,14,0,0,1-2.07-3.51l-.2-.52-.15.54L39.14,40a3.57,3.57,0,0,1-1.32-2.7l0-.7-.33.62L36.3,39.46c-.47-.58-1.78-2.68-1-7a16.17,16.17,0,0,0,2.17,2.88l.24.24.08-.34.52-2.53a10,10,0,0,1,1.45,2.64v.45l.32-.32a8.55,8.55,0,0,0,1.89-2.88,6,6,0,0,1,1.56,2.88l.37,0,0,.08.21-.35a25.69,25.69,0,0,0,1.7-3,30.62,30.62,0,0,1,1.18,3.48l.06.23.21-.12a7.6,7.6,0,0,0,2.41-2.52c0,2.87-.38,3.77-1.38,4.83C48.11,36.67,47.55,36.21,47.52,36.2Zm-1,7.35h0L46,43l-.13-.13-.13.13a8.51,8.51,0,0,0-1.32,3.19A22.4,22.4,0,0,1,42.6,43l-.11-.22.1-.17L44,40c.46,1.08.94,2.37,1,2.38l.12.31.2-.26a9.29,9.29,0,0,1,2-2A6.19,6.19,0,0,1,46.51,43.55Zm-1.79,5h0a.73.73,0,0,1-.77.1l-.26-.12v.29a5.12,5.12,0,0,1-.64,2.07c-.59-.23-.84-.72-1.18-1.46-.08-.18-.17-.37-.28-.58l-.21-.43-.13.46a3.13,3.13,0,0,0,1.9,3.54.48.48,0,0,1,.32.45c0,.49-.73,1.17-1.3,1.41-.22.08-.35.08-.4,0-4.25-10.07-4.15-12.18-3.86-13.42a5.94,5.94,0,0,1,1.77,1.73l.23.38.1-.43s.29-1.12.7-2.15c.55.65,1.55,2.19,1.56,2.21l.1.14-.11.24-1.16,2.6a12.21,12.21,0,0,1-1.63-2l-.34.15c.54,2.51,1.25,3.34,2.06,4.1l.32.29v-.42a9.07,9.07,0,0,1,1.09-2.24,5.8,5.8,0,0,0,1.34,2.08,3.85,3.85,0,0,0,.44.39c.19.16.4.33.41.43a.16.16,0,0,1-.07.11Zm-.31,9h0a1.06,1.06,0,0,1-.08,1,3.82,3.82,0,0,1-2.51,1c-.39,0-3.13-.34-3.13-1.73,0-1.15,2.27-1.5,3.14-1.54A4.08,4.08,0,0,1,44.41,57.51Zm1.51,9.89h0a5.66,5.66,0,0,0,4.23,1.28,2.63,2.63,0,0,1-2.28,1.38c-1.66,0-3.2-1.12-4.11-3.12l-.26-.58-.09.62c-.24,1.62,2,5.3,5.63,7.26a2.18,2.18,0,0,1-1.51.62A4.9,4.9,0,0,1,43.81,73l-.19-.21-.12.26c-.21.43.07.94.36,1.47a2.87,2.87,0,0,1,.46,1.24,4.9,4.9,0,0,1-2.13,4,4.91,4.91,0,0,1-2.16-4,2.87,2.87,0,0,1,.46-1.24c.29-.53.56-1,.35-1.47l-.12-.26-.18.22a5,5,0,0,1-3.7,1.86,2.17,2.17,0,0,1-1.52-.63C38.91,72.29,41.18,68.61,41,67l-.09-.64-.27.58c-.91,2-2.45,3.18-4.1,3.13a2.61,2.61,0,0,1-2.26-1.37,5.22,5.22,0,0,0,4.13-1.1c2.41-2,2.72-5.92,2.75-6.74h2.13c0,.81.35,4.5,2.68,6.55ZM36.5,46.2h0l0,0,0,0c-.87,2.12-1.61,3.26-2.22,3.38-.36.07-.66-.23-.94-.51L33.22,49l-.14-.14L33,49a6.27,6.27,0,0,0-2.26,4.68v.15l.14,0c2,.51,3.41,1.59,3.78,2.94a2.07,2.07,0,0,1-.41,2,2.76,2.76,0,0,1-2.23.95A2.2,2.2,0,0,1,30.6,59a2.06,2.06,0,0,0,1.67-.72,1.14,1.14,0,0,0,0-1.32,1.63,1.63,0,0,0-1.21-.77c-1.08-.09-2.27,1-3.07,1.75a4.22,4.22,0,0,0-1.07,4.39c-1,0-1.68-.17-2-.67-.8-1.24.69-4,1.4-5.31.13-.21.22-.4.3-.55l.12-.25-.27,0c-2.27-.19-3.35.48-3.85,1.06a2.38,2.38,0,0,0-.57,1.82c-.55-.08-1.44-.5-1.44-2.43S23.19,54,24,54c.2,0,.41,0,.62,0a1.7,1.7,0,0,0,1.28-.16.8.8,0,0,0,.23-.62c0-1.11-2.16-1.42-3.29-1.46.47-1.18,1.05-1.87,1.75-2,1.3-.29,2.86,1.24,4.11,2.48l.13.13.13.12.13-.12c.3-.3,2.93-3.63,2.53-5.64s.73-4,1.64-5.71c.18-.34.35-.66.5-1,.37-.75.6-.79.67-.78s.41.45.49.74v.05l0,0c.28.36,1.77,5.55,1.5,6.06ZM23.31,58.5h0a2,2,0,0,1,.48-1,1.48,1.48,0,0,1,.69-.36A3.51,3.51,0,0,0,23.31,58.5ZM18.37,46.83h0a36.55,36.55,0,0,1,2.22-6.25.44.44,0,0,1,.29.26C21.11,41.26,21.3,42.71,18.37,46.83Zm9.74-4.23h0a14.9,14.9,0,0,0,1.18-6c-.11-.74-.36-1.63-.9-1.68s-.83.5-1.19,1.6C24,46.75,21.46,46.82,20,46.51c1.12-.84,2.39-2.84,3-6.28.72-5,.25-6-.16-6.37a.72.72,0,0,0-.77-.08c-1,.38-2.2,4-4,9.58-.83,2.59-1.61,5-2.19,6.28-2.42,5-5.11,7.62-7.59,7.38-1.82-.18-3.36-1.94-4.16-4.73a7.59,7.59,0,0,0,6.37-1.51c5.12-4.21,5.51-15,5.51-18.25v0c0-.95-.21-1.51-.6-1.57s-.59.22-.78.75C11,42,6.9,42.89,5.31,42.8a3.61,3.61,0,0,1-3.13-2.14A4.28,4.28,0,0,0,6,40.12C9.54,37.56,9.7,29.65,9.7,29.57c0-.89-.13-1.32-.42-1.44s-.56.12-.75.31c-1.75,2-3.36,2.91-4.65,2.51a3.5,3.5,0,0,1-2.06-2.74,2.9,2.9,0,0,0,2.84.14c2.64-1.48,3-7.85,3-9.77a8,8,0,0,1,3-5.78A5.09,5.09,0,0,1,15,11.68c2,.55,3.2,1.54,3.68,3,.81,2.48-.88,5.47-1.61,6.41l-.08.11.08.11c3,4.34,14.25,5.17,16.36,5.29-1.23,1.8-3,1.52-5.86,1l-.79-.13c-4-.67-8.21-3.54-9.85-4.74-2.4-1.77-2.71-3.31-2.71-4.46a.66.66,0,0,1,0-.27c.19,0,.89.79,1.31,2.36l.09.31.22-.22a2.1,2.1,0,0,0,.6-2,5.93,5.93,0,0,1,0-.61,1,1,0,0,1,0-.38,1.54,1.54,0,0,1,.45.14,4.79,4.79,0,0,0,.75.28L18,18v-.25a3.35,3.35,0,0,0-1.9-2.42,2.82,2.82,0,0,1,.15-1.6,3.83,3.83,0,0,0,.2-1v-.19h-.19c-.61,0-.8.43-1.18,1.31-.14.33-.33.75-.58,1.24a2.2,2.2,0,0,1-1.2-1.28,2.41,2.41,0,0,0-.52-.85l-.13-.13-.13.14a1.8,1.8,0,0,0-.3,1.17A3.05,3.05,0,0,0,12.7,16c.46.45.69.69.7,1.18-1.9,3.56,3.71,7.34,7.08,9.6,4,2.69,9.68,2.69,11.82,2.69h.07l.67,0-.25.15a4.38,4.38,0,0,0-.7.49v0l0,0c-.43.72-.78,1.07-1.16,1.12s-.93-.25-1.67-1l-.17-.17-.13.22c-.4.74-.86,1.14-1.35,1.17-.66,0-1.42-.54-2.26-1.72l-.13-.18L25,29.8c-.7.7-1.22,1-1.55.94s-.61-.82-.84-1.58c-.05-.17-.1-.34-.16-.52l-.06-.22-.21.12c-.88.5-1.46.67-1.76.51s-.43-.74-.54-1.48c0-.2-.06-.41-.11-.63l0-.24-.23.11c-1,.53-1.62.69-2,.52s-.7-.82-1-1.69l0-.11-.11,0c-1.93-.25-2.31-.48-2.31-2.5v-.25l-.25.08c-1.73.56-2.17.07-2.24,0V20.94a1.22,1.22,0,0,0,.62-1.05,1.64,1.64,0,0,0-1.08-1.15.62.62,0,0,0-.61,0,1.37,1.37,0,0,0-.49,1s-.1,4.63-.1,4.63v.17l.17,0,2.31.25v2.1h3v3.53l.26-.12,2.86-1.24.6,2.67,0,.24.22-.11,2.35-1.2.57,1.78.07.19.18-.07,2.68-1.06.9,2.08.08.19.18-.1,2.7-1.44L31,33.66l.13.1.11-.11a12.43,12.43,0,0,0,1.44-2.14c1.39,4.29-2.41,9.25-4.55,11.09ZM37.4,26.87h0c.49,1.19,1,2.65,1,2.67l.21.67.16-.69A12.46,12.46,0,0,1,40,26a26.74,26.74,0,0,1,2.19,3.56l.35-.1a5,5,0,0,1,1-3.07,10.82,10.82,0,0,1,.75.93c.63.84,1.28,1.71,2,1.71h.19v-.19A5.51,5.51,0,0,1,47,26.24l1.9,1.87c.25.38-.34,4-1.26,5.25a17.58,17.58,0,0,0-2.34-3.78l-.13-.13-.13.13a2.58,2.58,0,0,0-.4,1.12,4.82,4.82,0,0,1-1,2.35,7.09,7.09,0,0,1-1.16-1.85,4.55,4.55,0,0,0-.79-1.3l-.18-.17-.11.22a7.27,7.27,0,0,0-.67,1.84A3.84,3.84,0,0,1,40.24,33l-2.05-2-.48-.46-.32-.32v.45a9,9,0,0,1-.22,2.47,8.83,8.83,0,0,1-2.12-3.72,8.84,8.84,0,0,0,2.35-2.46Zm-1-2.38h0v.05c0,.65,0,1.16-.23,1.39a.67.67,0,0,1-.36.11,2.21,2.21,0,0,1,.42-1.46,1.47,1.47,0,0,1,.17-.09Zm2-4.16h0a8.17,8.17,0,0,0-.11-9.81h0A3.06,3.06,0,0,0,37,9.64l-.2-.83,0-.14h-.14a9.08,9.08,0,0,0-2.29.67,1.3,1.3,0,0,1,.2-1.12c.38-.46,1.24-.6,2.48-.39h0c.43,0,.54-.38.65-.76a2.91,2.91,0,0,1,.43-1c.77-1,1.78-1,3.08-.73a11.93,11.93,0,0,1,4.2,2,5.81,5.81,0,0,1,1.84,4.53,1.82,1.82,0,0,0-1.42-.19,1.15,1.15,0,0,0-.58.89,11.81,11.81,0,0,0,1.3,8.22,12.92,12.92,0,0,1,1.87,5,9.81,9.81,0,0,1-.75-1.15c-.4-.69-.68-1.18-1.07-1.18H46.5l0,.1a5.2,5.2,0,0,0-.85,2.86,2.93,2.93,0,0,1-2-3.1l-.37-.06-.28.79c-.42,1.14-.82,2.25-1.08,2.75a10.43,10.43,0,0,0-2-3.07l-.18-.17a1.48,1.48,0,0,0-.13.21c-.28.53-.54.94-.76,1.3a5.1,5.1,0,0,0-.59,1.17c-.62-1-.82-1.28-.87-1.33S36.5,23.13,38.42,20.33ZM79.87,38.92h0c-1.49-.9-2.42-3.32-2.46-6.35,2.73.22,4.66-.25,5.73-1.44,1.37-1.53,1.09-3.9.73-5.55l-.06-.34-.24.25c-1.14,1.13-2.12,1.53-2.94,1.19-2-.83-2.63-5.85-2.63-7.49-.21-4.18-1.73-7.29-4.27-8.76a7.22,7.22,0,0,0-7,0,5.39,5.39,0,0,0-2.85,3.32c-.69,2.34.2,5.18,1.21,7C60,24.88,51.27,23.88,50,23.7a18.85,18.85,0,0,1-2.43-9.19v-.07a.75.75,0,0,1,.31-.72c.59-.32,2,.44,2.45.76l.23-.3s-1.2-1.16-3-6C46.49,5.77,43.29,4.71,42,4.37c-2.53-.86-4.14-.2-5.2,2.14-.09.19-.71.23-1.21.26a3.17,3.17,0,0,0-2,.54c-1.08,1.17-.16,3.86-.12,4l.08.23.19-.13s2-1.24,3.45-.47c1,.53,1.56,1.88,1.63,4,0,1.72-1.46,4.59-4.49,8.78-1.28.18-9.93,1.2-15.06-2.94,1-1.8,1.87-4.64,1.19-7a5.38,5.38,0,0,0-2.86-3.31,7.12,7.12,0,0,0-7,.28C7.67,12.54,6,16.21,6,20.84,6,22.26,5.23,26.3,3.46,27c-.85.32-1.84-.19-2.94-1.5l-.26-.3-.07.38a6.79,6.79,0,0,0,1.6,6.09c.87.83,2.47,1.65,5.14,1,0,3-1,5.42-2.45,6.31a3.47,3.47,0,0,1-3.56-.22l-.34-.18.06.37c.43,2.76,1.5,4.52,3.09,5.08,2.15.76,5.24-.66,9.17-4.16-1,4.48-2.19,9.45-5.13,11-1.35.7-3,.64-4.93-.19l-.3-.13,0,.33c.55,3.81,1.9,6.44,3.83,7.42a4.86,4.86,0,0,0,4.64-.38c4.59-2.48,7-10.07,7.14-10.4,0-.13.08-.27.12-.41l.06.06a3.42,3.42,0,0,0,2.92.92A5.12,5.12,0,0,0,25,45.32c.5-1,.87-1.93,1.2-2.71s.51-1.2.76-1.7a8.26,8.26,0,0,1-1.32,3.58v0c-.24.23-.28.42-.15.56.41.43,3.23-.86,3.79-1.39a.39.39,0,0,1,.47,0c.41.23.71,1,.34,2.59a7.29,7.29,0,0,1-2,4c-.57-.54-2.94-2.6-4.89-1.88-1.22.45-1.95,1.92-2.17,4.36-1.39,1.41-2.38,3.75-1.66,5.29.37.77,1.31,1.63,3.73,1.41a4.16,4.16,0,0,0-.11.72h0v0c.14,1.74.7,2.93,1.65,3.52s2.46.58,4.28-.15l.2-.08L29,63.23c-.49-.83-1.51-2.57-1.07-3.52a1.26,1.26,0,0,1,1-.63l.29.33c.62.74,1.56,1.85,3,1.53,2.32-.55,3.49-1.55,3.49-3,0-1.59-.4-3.26-3.22-4.7,0-1.15.75-1.56,1.8-2.14a7.92,7.92,0,0,0,3.36-3l.1-.16c0-.06.15-.18.25-.18s.21.09.33.25c0,0,.14.24.14.24,1.59,2.32,2,6.29,1.57,6.66a4.84,4.84,0,0,1-.48.32c-.91.55-2.59,1.57-2.49,2.79.07.8.85,1.49,2.41,2.12l0,0c.18.18.26,1.61-.46,3.4s-2.26,4-6.52,3.53l-.27,0,.08.26c.8,2.84,1.78,4.24,4.85,4.38a23.63,23.63,0,0,1-3.32,2.16l-.12.06,0,.14s.46,2.72,4.7,2.79c.12,2,2.25,3.76,3.68,5l.12.11.12-.11c1.43-1.2,3.56-3,3.67-5,4.25-.07,4.71-2.77,4.71-2.8l0-.13-.12-.06a25.72,25.72,0,0,1-3.31-2.16c3.07-.14,4.05-1.55,4.84-4.38l.06-.27-.27,0c-4.26.42-6.19-1.8-6.9-3.56a4,4,0,0,1-.06-3.37l0,0c1.55-.63,2.34-1.32,2.41-2.12.09-1.22-1.6-2.24-2.5-2.79a3.2,3.2,0,0,1-.48-.32c-.45-.37,0-4.35,1.56-6.65l.22-.35.56.05.05.08A7.31,7.31,0,0,0,50.13,51c1.08.57,1.81,1,1.85,2.25-2.81,1.44-3.22,3.11-3.22,4.7,0,1.43,1.18,2.43,3.5,3,1.43.32,2.36-.79,3-1.52a3.55,3.55,0,0,1,.29-.33,1.23,1.23,0,0,1,.95.62c.45,1-.6,2.75-1,3.52l-.11.19.2.08c1.84.75,3.3.79,4.33.12s1.57-2,1.63-4.07v0s0-.08,0-.13c2.35.19,3.28-.65,3.63-1.42.71-1.54-.28-3.88-1.66-5.28-.23-2.44-1-3.91-2.19-4.35-1.68-.62-3.85.89-4.88,1.87a7.07,7.07,0,0,1-2-4c-.38-1.55-.08-2.35.33-2.58a.39.39,0,0,1,.48,0c.56.55,3.41,1.88,3.82,1.46.21-.22-.06-.5-.17-.61a7.89,7.89,0,0,1-1.32-3.57c.23.5.47,1,.74,1.66.33.79.7,1.69,1.21,2.75A5.14,5.14,0,0,0,63.07,48,3.47,3.47,0,0,0,66,47.1l0-.06c0,.14.08.27.13.41.09.33,2.55,7.92,7.14,10.39a4.84,4.84,0,0,0,4.63.38c1.93-1,3.29-3.62,3.83-7.43l0-.32-.3.13c-2,.82-3.58.88-4.94.18-2.94-1.52-4.12-6.48-5.13-11,3.94,3.5,7,4.92,9.18,4.15,1.59-.56,2.65-2.32,3.08-5.08l.05-.36-.32.17a3.51,3.51,0,0,1-3.57.22ZM42.94,98.3h-.1l-6.48.11,3.77-8.58s.21-.73.69,0l2.12,8.46h0Zm38.35,8.28h0c-.65-2.49-2.84-36.78-2.8-37.73-.15-.71,1.54-1.75,1.65-1.75a22.49,22.49,0,0,1-7.9,0c-.87-.2.89.71.73,1.39-.39,4-7.19,24.6-7.14,24.53-1.51-1.42-4.7-23.5-4.71-23.81-.11-1,1.6-1.75,1.31-2.14-3.6,1.62-8.72,0-8.72,0-.58.26,1.14.94,1.09,2.42s-2.74,32-3.22,34.69a14.33,14.33,0,0,1-.61,2.65l-.29-.44C47.55,100.51,45.8,86.53,45.91,86s1.26-.9,1.26-.9l-7.1,0c-.1,1.75-8.85,20.31-10.88,22.09h0s.23-35.63.22-37.49c0-1.47,1.85-2.5,1.85-2.5l-.27,0a13.77,13.77,0,0,1-3.8.46,13.14,13.14,0,0,1-3.77-.5c-.44-.09-.53,0-.53.08l.5.65c2.47,2.26-.24,16.32-.41,16.62-11.51,33.87-16.1,14-16.1,14-1.24-5.52,1.65-28,1.73-28,.77-1.53,3.17-3,3.11-3.15l-.07-.07C7.16,69.22.09,67.06,0,67.1H0v0c-.29.16,2.58,1.45,2.68,2.63,0,.58-1.62,26.08-1.62,26C.7,109,8.5,109.17,8.5,109.17,18.84,109,23.44,89.49,23.53,89s.67-.29.67-.29l.1,18.08-.36,1-.83,1.42a15.1,15.1,0,0,1,8.14-.12,5.28,5.28,0,0,0,.66.12l.19-.24-.14-.45c.14-2.38,3.49-7.82,3.49-7.82s7,.21,8.15,0l2,7.15c-.93.69-1.11,1.19-.94,1.31a12.75,12.75,0,0,1,6.39-.79,28.43,28.43,0,0,0,3.74.76c-.26-.3-.78-.69-.83-1.08a4.51,4.51,0,0,1,0-.73c-.4-5.88,2.39-27.31,2.39-27.57.32-2.39,1-.25,1-.25s5.64,27.2,6,29.06v.08l.14.43h1.2l.15-.51c1.17-4.16,8-28.06,8-28.14.56-1.79,1.13-.34,1.13-.34.9,1,1.56,27.53,1.52,27.58-1.51.88-1.23,1.5-1.21,1.5,3.32-1.68,9.66,0,9.75-.1l-2.68-2.49Z"/><path id="path4068" class="cls-1" d="M119.32,27.64h-5.08v.71c1.38.08,1.85.49,2,1.2a16.1,16.1,0,0,1,.2,2.83v2.17c0,3.4-1,5.23-3.47,5.23-2.2,0-3.3-1.77-3.3-4.82V30.53c0-1.91.2-2,1.69-2.18v-.71h-6.12v.71c1.5.14,1.71.27,1.71,2.18v4.79c0,2.38.54,3.89,1.68,4.8a5.79,5.79,0,0,0,3.6,1A5.15,5.15,0,0,0,116,39.67c1.14-1.22,1.47-2.92,1.47-5.08V32.38a16.87,16.87,0,0,1,.18-2.83c.1-.71.61-1.14,1.71-1.2Zm11.9,2.64h-4v.56c1.2.06,1.53.34,1.61,1a22.82,22.82,0,0,1,.13,2.68v2.86h-.05l-6.23-7.14h-3v.56a1.68,1.68,0,0,1,1.37.58c.31.39.32.69.32,1.76v3.38a18.73,18.73,0,0,1-.16,2.7c-.06.7-.44,1-1.35,1v.58h4v-.58c-1.21,0-1.48-.35-1.57-1.07a26.46,26.46,0,0,1-.12-2.65V32.92h0L129,41h.78V34.56a22.73,22.73,0,0,1,.15-2.72c.08-.73.42-1,1.3-1ZM137,40.86v-.58c-1.22-.11-1.35-.22-1.35-1.59V32.46c0-1.4.13-1.49,1.35-1.61v-.57h-4.9v.57c1.22.12,1.37.21,1.37,1.61v6.23c0,1.37-.15,1.48-1.37,1.59v.58Zm16.41-10.58h-3.82v.57c1.32.12,1.38.39,1.16,1.37s-.9,3.5-1.52,5.5h-.05c-.89-2.38-1.82-4.87-2.73-7.34h-.78c-.75,2.51-1.56,5-2.34,7.27h0c-.55-1.79-1.1-3.69-1.64-5.59-.23-.83-.21-1.06,1-1.21v-.57h-4.8v.57c1,.13,1.24.36,1.63,1.63.91,2.89,1.71,5.63,2.6,8.56h.85c.78-2.35,1.61-4.77,2.44-7.23h0L148.06,41h.84c1.37-4.56,2.33-7.39,2.69-8.45.45-1.35.71-1.58,1.8-1.74ZM162.26,38a5.29,5.29,0,0,1-.91,1.59,2.26,2.26,0,0,1-1.79.53A4.23,4.23,0,0,1,158.1,40c-.33-.16-.39-.55-.39-1.33V35.83h1.09c1.38,0,1.59.06,1.8,1.24h.59V33.8h-.59c-.21,1.13-.44,1.22-1.8,1.22h-1.09V31.57c0-.54.06-.57.66-.57h.78c.91,0,1.35.11,1.63.41a3.27,3.27,0,0,1,.65,1.39l.6-.08c-.06-1-.14-2.14-.16-2.44h-7.66v.57c1.15.1,1.32.18,1.32,1.6v6.24c0,1.38-.17,1.48-1.55,1.59v.58h8.3c.13-.49.45-2,.57-2.71Zm4.85-2.39V31.7c0-.34,0-.51.14-.6a1.1,1.1,0,0,1,.74-.17c.91,0,1.92.62,1.92,2.36a2.36,2.36,0,0,1-.78,1.94,2.44,2.44,0,0,1-1.6.42Zm6.64,4.83h0a2.45,2.45,0,0,1-1-.7A13.24,13.24,0,0,1,171.52,38c-.49-.75-1.09-1.82-1.34-2.31a2.81,2.81,0,0,0,2-2.65,2.47,2.47,0,0,0-1.09-2.16,5,5,0,0,0-2.92-.61h-4.57v.57c1.19.12,1.34.28,1.34,1.58v6.25c0,1.35-.18,1.49-1.4,1.61v.57h4.91v-.57c-1.24-.12-1.38-.26-1.38-1.61V36.3h.31a1.09,1.09,0,0,1,1.07.7c.47.86.91,1.74,1.34,2.41.66,1,1.28,1.48,3.33,1.58h.49Zm7.17-7.68c-.13-1-.24-1.74-.31-2.34a7.12,7.12,0,0,0-2.26-.42c-2.31,0-3.73,1.4-3.73,3.19,0,1.56,1.18,2.44,2.83,3.28,1.23.65,1.94,1.25,1.94,2.21a1.58,1.58,0,0,1-1.63,1.73c-1.56,0-2.52-1.84-2.84-2.88l-.57.19a15.84,15.84,0,0,0,.49,2.75,6.27,6.27,0,0,0,1,.36,5.7,5.7,0,0,0,1.64.23c2.38,0,4-1.45,4-3.3,0-1.61-1.17-2.52-2.88-3.35-1.43-.74-2-1.24-2-2.13a1.54,1.54,0,0,1,1.58-1.61c1.32,0,1.93,1.2,2.26,2.22Zm11.13-2.52h-3.78v.57c1.21.15,1.22.38,1,1-.39,1-1.22,2.52-1.69,3.44-.63-1.2-1.3-2.4-1.87-3.54-.28-.59-.29-.78.76-.93v-.57H181.8v.57c.89.13,1.17.3,1.77,1.37,1,1.72,1.58,2.81,2,3.69a1.87,1.87,0,0,1,.21.9v1.8c0,1.48-.15,1.58-1.53,1.69v.56h5.29V40.3c-1.47-.11-1.58-.21-1.58-1.69V36.53a1.85,1.85,0,0,1,.29-1.12,32.67,32.67,0,0,1,1.83-3.19c.6-1,.92-1.25,2-1.37v-.57ZM202.43,33c-.08-1-.17-2.47-.18-3.15h-.41a1.05,1.05,0,0,1-.92.4h-6.55c-.47,0-.68-.05-.92-.4H193c0,.83-.13,2-.2,3.2h.61a3.77,3.77,0,0,1,.68-1.64c.23-.28.52-.44,1.87-.44h.55v7.69c0,1.38-.16,1.48-1.52,1.59v.58h5.3v-.58c-1.43-.11-1.6-.21-1.6-1.59V31h.74c1,0,1.36.08,1.66.37a3.6,3.6,0,0,1,.71,1.69Zm9.11,5a5.29,5.29,0,0,1-.91,1.59,2.28,2.28,0,0,1-1.79.53,4.33,4.33,0,0,1-1.47-.17c-.32-.16-.39-.55-.39-1.33V35.83h1.09c1.38,0,1.6.06,1.81,1.24h.58V33.8h-.58c-.21,1.13-.44,1.22-1.81,1.22H207V31.57c0-.54.07-.57.67-.57h.78c.91,0,1.35.11,1.63.41a3.27,3.27,0,0,1,.65,1.39l.6-.08c-.06-1-.15-2.14-.16-2.44h-7.67v.57c1.16.1,1.32.18,1.32,1.6v6.24c0,1.38-.16,1.48-1.54,1.59v.58h8.29c.13-.49.46-2,.57-2.71l-.58-.11Zm10.69-5c-.08-1-.17-2.47-.18-3.15h-.41a1.06,1.06,0,0,1-.93.4h-6.54c-.47,0-.68-.05-.92-.4h-.41c0,.83-.13,2-.2,3.2h.61a3.77,3.77,0,0,1,.68-1.64c.23-.28.52-.44,1.87-.44h.55v7.69c0,1.38-.16,1.48-1.52,1.59v.58h5.3v-.58c-1.43-.11-1.6-.21-1.6-1.59V31h.74c1,0,1.36.08,1.66.37a3.6,3.6,0,0,1,.71,1.69l.59,0ZM110.09,61.89v-.57c-1.22-.12-1.35-.23-1.35-1.59V53.51c0-1.39.13-1.49,1.35-1.61v-.56H105.2v.56c1.22.12,1.36.22,1.36,1.61v6.22c0,1.36-.14,1.47-1.36,1.59v.57Zm14.61,0v-.57c-1.27-.13-1.35-.25-1.38-1.74l-.15-6.07c0-1.35,0-1.48,1.33-1.61v-.56h-3.28L118,58.45l-3.12-7.11h-3.36v.56c1.4.13,1.51.36,1.38,2.19l-.26,3.22a28.85,28.85,0,0,1-.34,3.07c-.11.58-.4.86-1.33.94v.57h3.91v-.57c-1.08-.1-1.39-.25-1.46-1a15.28,15.28,0,0,1,0-2.61l.2-4.23h.06L117,61.77h.45l3.59-8.44h.08l0,6.25c0,1.49-.08,1.61-1.3,1.74v.57Zm2.5.19a1.24,1.24,0,0,0,0-2.47,1.19,1.19,0,0,0-1.2,1.24A1.17,1.17,0,0,0,127.2,62.08Zm24.07-9c0-.47,0-.75.16-.89a1.61,1.61,0,0,1,1-.23,3.51,3.51,0,0,1,2.65,1,4.83,4.83,0,0,1,1.22,3.5c0,2.91-1.5,4.68-3.67,4.68-1.14,0-1.38-.41-1.38-1.58V53.12Zm-3.48-1.78h0v.57c1.14.11,1.3.21,1.3,1.6v6.2c0,1.4-.16,1.49-1.44,1.61v.57h4.17a8.1,8.1,0,0,0,4.92-1.35,5.21,5.21,0,0,0,2-4.35,4.66,4.66,0,0,0-1.45-3.46c-1-1-2.61-1.39-4.66-1.39Zm17.13,6.23h-2.53c.42-1.15.83-2.34,1.28-3.52h.05Zm4.82,4.32h0v-.57c-1-.13-1.23-.34-1.78-1.77-1.06-2.79-2.06-5.62-3.1-8.46l-.83.21-3.33,8.35c-.54,1.36-.75,1.54-1.82,1.67v.57h3.64v-.57c-1.19-.15-1.24-.38-1-1.16s.41-1.23.58-1.73h3.12c.24.65.49,1.35.65,1.83.26.72.18.91-.78,1.06v.57Zm14.27,0v-.57c-1.26-.13-1.34-.25-1.38-1.74l-.14-6.07c0-1.35,0-1.48,1.33-1.61v-.56h-3.28l-3.18,7.11-3.12-7.11h-3.36v.56c1.39.13,1.51.36,1.38,2.19L172,57.31a28.85,28.85,0,0,1-.34,3.07c-.11.58-.41.86-1.33.94v.57h3.91v-.57c-1.09-.1-1.4-.25-1.46-1a14.27,14.27,0,0,1,0-2.61L173,53.5H173l3.31,8.27h.46l3.58-8.44h.08l0,6.25c0,1.49-.08,1.61-1.3,1.74v.57Zm6.79-4.32h-2.53c.42-1.15.83-2.34,1.28-3.52h0Zm4.82,4.32h0v-.57c-1-.13-1.23-.34-1.78-1.77-1.06-2.79-2.07-5.62-3.11-8.46l-.82.21-3.33,8.35c-.54,1.36-.75,1.54-1.82,1.67v.57h3.64v-.57c-1.19-.15-1.24-.38-1-1.16s.4-1.23.58-1.73h3.12c.24.65.49,1.35.65,1.83.26.72.18.91-.78,1.06v.57Zm27.34,0v-.57c-1.21-.12-1.34-.23-1.34-1.59V53.51c0-1.39.13-1.49,1.34-1.61v-.56h-4.88v.56c1.21.12,1.36.22,1.36,1.61v6.22c0,1.36-.15,1.47-1.36,1.59v.57Zm10.64-3c-.83,1.64-1.84,2.5-3.19,2.5-2.2,0-3.81-2-3.81-4.95,0-2.41,1.3-4.61,3.65-4.61a3,3,0,0,1,3,2.48l.6-.11c-.11-1-.23-1.76-.37-2.65a12.52,12.52,0,0,0-3-.44c-3.88,0-6.43,2.31-6.43,5.65,0,2.58,1.79,5.39,6.11,5.39a15.82,15.82,0,0,0,3-.42,20.5,20.5,0,0,0,.91-2.6l-.57-.24Zm12.17,3v-.57a2.56,2.56,0,0,1-1.75-1.2c-1.17-1.48-2.37-3.12-3.41-4.68.73-.74,1.41-1.52,2.37-2.4a3.76,3.76,0,0,1,2.57-1.14v-.56h-4.22v.56l.29,0c.76.09.79.34.4.84a21.69,21.69,0,0,1-2.27,2.63,3.06,3.06,0,0,1-1.23.86V53.51c0-1.39.13-1.49,1.28-1.61v-.56H235v.56c1.21.12,1.36.22,1.36,1.61v6.2c0,1.4-.16,1.49-1.33,1.61v.57h4.85v-.57c-1.25-.12-1.39-.21-1.39-1.61V56.79c.24,0,.45.07.79.55,1.15,1.69,2.5,3.59,3.2,4.55Zm5.56,0v-.57c-1.22-.12-1.35-.23-1.35-1.59V53.51c0-1.39.13-1.49,1.35-1.61v-.56h-4.89v.56c1.22.12,1.36.22,1.36,1.61v6.22c0,1.36-.14,1.47-1.36,1.59v.57Zm9.33-2.81a5.33,5.33,0,0,1-.91,1.59,2.28,2.28,0,0,1-1.78.52,4.27,4.27,0,0,1-1.46-.16c-.33-.17-.39-.56-.39-1.33V56.87h1.08c1.38,0,1.6.07,1.81,1.23h.58V54.84H259c-.21,1.14-.44,1.22-1.81,1.22h-1.08V52.62c0-.54.06-.57.66-.57h.78c.91,0,1.35.12,1.63.41a3.1,3.1,0,0,1,.64,1.39l.6-.08c-.06-1-.14-2.14-.16-2.43h-7.65v.56c1.16.1,1.32.18,1.32,1.6v6.23c0,1.38-.16,1.47-1.54,1.59v.57h8.28c.13-.49.45-2,.57-2.7l-.59-.11Zm16.48-7.74h-3.81v.57c1.31.11,1.38.39,1.15,1.36s-.89,3.49-1.51,5.48h-.05c-.89-2.37-1.82-4.85-2.73-7.32h-.78c-.74,2.5-1.56,5-2.34,7.26h0c-.55-1.79-1.1-3.68-1.64-5.58-.22-.83-.21-1.06,1-1.2v-.57h-4.79v.57c1,.12,1.23.35,1.62,1.62.91,2.89,1.71,5.61,2.6,8.54h.84c.78-2.34,1.61-4.76,2.44-7.21h0c.91,2.47,1.77,4.79,2.67,7.21h.84c1.36-4.55,2.32-7.37,2.68-8.43.45-1.34.71-1.57,1.8-1.73v-.57Zm5.65,10.55v-.57c-1.22-.12-1.35-.23-1.35-1.59V53.51c0-1.39.13-1.49,1.35-1.61v-.56H277.9v.56c1.22.12,1.37.22,1.37,1.61v6.22c0,1.36-.15,1.47-1.37,1.59v.57Zm10.63-3c-.82,1.64-1.83,2.5-3.18,2.5-2.21,0-3.81-2-3.81-4.95,0-2.41,1.3-4.61,3.65-4.61a3,3,0,0,1,3,2.48l.6-.11c-.12-1-.23-1.76-.38-2.65a12.51,12.51,0,0,0-2.95-.44c-3.88,0-6.43,2.31-6.43,5.65,0,2.58,1.79,5.39,6.1,5.39a15.57,15.57,0,0,0,3-.42,17.78,17.78,0,0,0,.91-2.6l-.57-.24Zm10.15-.11a4.35,4.35,0,0,1-1,1.86,4.87,4.87,0,0,1-2.87.54,15.69,15.69,0,0,1-2-.1c2-3.22,4-6.3,6.08-9.48l-.14-.24H297c-.52,0-.7,0-.94-.41h-.42c0,.85-.13,2-.18,3.25H296a4.54,4.54,0,0,1,.63-1.55c.26-.39.57-.57,2.22-.57h2.05c-2,3.14-4.11,6.4-6.19,9.54l.18.28h8.62c.17-.57.46-2.21.59-3l-.54-.13Zm7.11-1.19h-2.53c.42-1.15.83-2.34,1.28-3.52h.05Zm4.82,4.32v-.57c-1-.13-1.23-.34-1.78-1.77-1.06-2.79-2.06-5.62-3.1-8.46l-.83.21-3.33,8.35c-.53,1.36-.75,1.54-1.82,1.67v.57h3.64v-.57c-1.18-.15-1.23-.38-1-1.16s.41-1.23.58-1.73H311c.25.65.49,1.35.65,1.83.26.72.18.91-.78,1.06v.57Zm-174.79-5.4h-3.16c.53-1.44,1-2.92,1.6-4.4h.06Zm6,5.4h0v-.71c-1.3-.17-1.54-.43-2.23-2.21-1.32-3.49-2.58-7-3.88-10.58l-1,.27-4.16,10.43c-.67,1.7-.94,1.92-2.28,2.09v.71h4.55v-.71c-1.48-.19-1.54-.47-1.24-1.44s.51-1.55.73-2.18h3.9c.3.82.61,1.69.81,2.3.33.89.22,1.13-1,1.32v.71Zm70.17,0v-.71c-1.59-.17-1.69-.31-1.73-2.17L215,51.42c0-1.69,0-1.85,1.66-2V48.7h-4.1l-4,8.89-3.9-8.89h-4.2v.71c1.74.16,1.89.44,1.72,2.74l-.32,4a35.9,35.9,0,0,1-.43,3.83c-.14.73-.5,1.07-1.66,1.18v.71h4.89v-.71c-1.36-.13-1.75-.31-1.83-1.22a18.67,18.67,0,0,1,0-3.27l.25-5.29h.08l4.14,10.34h.57l4.48-10.55h.1l0,7.82c0,1.86-.1,2-1.62,2.17v.71ZM120.84,72.35H117v.57c1.32.12,1.38.39,1.15,1.37s-.89,3.5-1.51,5.5h0c-.89-2.37-1.82-4.86-2.73-7.34h-.79c-.74,2.51-1.56,5-2.34,7.28h0c-.56-1.79-1.11-3.7-1.65-5.6-.22-.83-.21-1.06,1-1.21v-.57h-4.8v.57c1,.13,1.24.36,1.63,1.63.91,2.9,1.71,5.63,2.6,8.56h.85c.78-2.34,1.61-4.77,2.44-7.22h0c.92,2.47,1.78,4.8,2.67,7.22h.85c1.37-4.56,2.33-7.39,2.69-8.45.45-1.35.71-1.57,1.8-1.74Zm22,.46c1.9,0,3.21,1.94,3.21,5.18,0,3-1.26,4.5-2.8,4.5-2.09,0-3.31-2.34-3.31-5.14s1.27-4.54,2.9-4.54Zm.32-.68h0a5.46,5.46,0,0,0-5.73,5.55,5.56,5.56,0,1,0,11.12-.15,5.26,5.26,0,0,0-5.39-5.4Zm15.41,7.67a4.57,4.57,0,0,1-1,1.87,5,5,0,0,1-2.88.53,14,14,0,0,1-2-.1c2-3.23,4-6.31,6.09-9.5l-.13-.25H152c-.52,0-.7,0-.95-.4h-.42c0,.84-.13,2-.18,3.25l.54,0a4.84,4.84,0,0,1,.63-1.56c.26-.39.57-.57,2.23-.57h2.06c-2,3.15-4.12,6.41-6.21,9.57l.18.27h8.65c.16-.57.45-2.21.58-3Zm12.52-7.45h-4v.56c1.21.06,1.53.34,1.61,1a22.16,22.16,0,0,1,.14,2.68V79.5h-.05l-6.24-7.15h-3v.56a1.68,1.68,0,0,1,1.37.58c.31.39.32.69.32,1.76v3.39a18.73,18.73,0,0,1-.16,2.7c-.06.7-.44,1-1.35,1v.57h4v-.57c-1.21,0-1.48-.35-1.57-1.07a25.39,25.39,0,0,1-.13-2.65V75h.05l6.78,8.11h.78V76.63a23.29,23.29,0,0,1,.14-2.71c.08-.74.43-1,1.31-1v-.56Zm5.86,6.25h-2.54c.42-1.15.83-2.34,1.28-3.53h.05Zm4.83,4.33h0v-.57c-1-.13-1.24-.34-1.79-1.77-1.06-2.8-2.07-5.63-3.11-8.48l-.83.21-3.34,8.37c-.53,1.36-.74,1.54-1.82,1.67v.57h3.65v-.57c-1.19-.14-1.24-.37-1-1.15s.41-1.24.59-1.74h3.13c.24.65.48,1.35.65,1.84.26.71.18.91-.78,1v.57Zm12.1-10.58h-4v.56c1.2.06,1.53.34,1.61,1a23,23,0,0,1,.13,2.68V79.5h0l-6.24-7.15h-3v.56a1.68,1.68,0,0,1,1.37.58c.31.39.32.69.32,1.76v3.39a18.73,18.73,0,0,1-.16,2.7c-.06.7-.44,1-1.35,1v.57h4v-.57c-1.21,0-1.48-.35-1.56-1.07a22.75,22.75,0,0,1-.13-2.65V75h.05l6.77,8.11h.78V76.63a22.51,22.51,0,0,1,.15-2.71c.08-.74.42-1,1.3-1v-.56Zm5.76,10.58v-.57c-1.22-.11-1.35-.22-1.35-1.59V74.53c0-1.39.13-1.49,1.35-1.61v-.57h-4.9v.57c1.22.12,1.37.22,1.37,1.61v6.24c0,1.37-.15,1.48-1.37,1.59v.57ZM212,72.35H208v.57c1.11.07,1.49.39,1.58,1a12.7,12.7,0,0,1,.17,2.27v1.74c0,2.72-.85,4.18-2.79,4.18-1.76,0-2.64-1.42-2.64-3.86V74.67c0-1.54.17-1.63,1.36-1.75v-.57h-4.91v.57c1.21.12,1.37.21,1.37,1.75v3.84c0,1.9.44,3.1,1.35,3.84a4.71,4.71,0,0,0,2.89.83,4.16,4.16,0,0,0,3-1.19,5.69,5.69,0,0,0,1.17-4.07V76.15a13.45,13.45,0,0,1,.15-2.27c.08-.57.48-.91,1.36-1v-.57Zm-82.35-1a.82.82,0,0,1,.18-.64,1.2,1.2,0,0,1,.75-.2c1.25,0,2.53.75,2.53,3,0,2.75-1.63,3.28-2.36,3.28a3.13,3.13,0,0,1-1.1-.2Zm-4.29-1.63h0v.71c1.42.14,1.6.28,1.6,2v7.8c0,1.73-.18,1.87-1.71,2v.69h6.31v-.69c-1.73-.14-1.91-.28-1.91-2V77.42l1.38.35a6.49,6.49,0,0,0,.84,0c2.15-.27,4.17-1.51,4.17-4.24a3.44,3.44,0,0,0-1.51-3,6.1,6.1,0,0,0-3.56-.79Z"/><line class="cls-2" x1="340.18" x2="340.18" y2="119.23"/><path class="cls-3" d="M379.56,28.49c-1.32.22-1.66.48-2.2,2.16-.46,1.28-1.64,4.76-3.32,10.36h-1c-1.08-3-2.14-5.84-3.26-8.88h0c-1,3-2.06,6-3,8.88h-1.06c-1.08-3.6-2.08-7-3.2-10.5-.48-1.56-.82-1.84-2-2v-.7h5.92v.7c-1.52.18-1.54.46-1.26,1.48.66,2.34,1.34,4.66,2,6.88h0c.94-2.84,1.94-5.86,2.88-8.94h1c1.12,3,2.26,6.1,3.36,9h0c.78-2.46,1.6-5.58,1.88-6.74s.18-1.54-1.44-1.7v-.7h4.7Z"/><path class="cls-3" d="M390.1,31a2.11,2.11,0,0,0-1.92,1.34c-.59,1-1,1.63-1.8,3.14a1.93,1.93,0,0,0-.28,1.1v2c0,1.44.13,1.54,1.55,1.67v.54h-5.2v-.54c1.36-.12,1.5-.23,1.5-1.67V36.81a1.63,1.63,0,0,0-.21-.87c-.43-.88-1-1.95-2-3.63-.59-1.06-.87-1.23-1.75-1.36v-.56h4.58V31c-1,.14-1,.35-.75.93.56,1.1,1.2,2.28,1.82,3.47.47-.91,1.29-2.42,1.67-3.39.26-.64.24-.85-.95-1v-.56h3.72Z"/><path class="cls-3" d="M395.71,30.39a6.45,6.45,0,0,1,4.6,1.39,4.61,4.61,0,0,1,1.4,3.39,5.13,5.13,0,0,1-2,4.29,7.9,7.9,0,0,1-4.85,1.33h-4.11v-.56c1.27-.11,1.43-.22,1.43-1.58V32.53c0-1.37-.15-1.47-1.29-1.58v-.56Zm-1.39,8.16c0,1.15.24,1.55,1.36,1.55,2.14,0,3.62-1.76,3.62-4.61A4.84,4.84,0,0,0,398.11,32a3.54,3.54,0,0,0-2.61-1,1.58,1.58,0,0,0-1,.23c-.15.14-.18.41-.18.88Z"/><path class="cls-3" d="M412.13,37.83c-.13.78-.42,2.4-.59,3h-8.49l-.19-.27c2.07-3.11,4.13-6.32,6.12-9.41h-2c-1.63,0-1.94.19-2.19.56a4.31,4.31,0,0,0-.63,1.52l-.54,0c0-1.23.16-2.35.19-3.18h.42c.24.38.41.4.91.4h6.51l.13.24c-2,3.12-4,6.16-6,9.34a13.4,13.4,0,0,0,2,.1,4.82,4.82,0,0,0,2.83-.53,4.22,4.22,0,0,0,1-1.84Z"/><path class="cls-3" d="M412.93,40.79v-.56c1.18-.11,1.32-.22,1.32-1.57V32.53c0-1.36-.14-1.47-1.32-1.58v-.56h4.8V31c-1.19.11-1.33.22-1.33,1.58v6.13c0,1.35.14,1.46,1.33,1.57v.56Z"/><path class="cls-3" d="M424.18,40.79v-.56c.94-.14,1-.34.77-1l-.65-1.81h-3.07c-.17.5-.38,1.07-.57,1.71s-.2,1,1,1.14v.56h-3.58v-.56c1.06-.13,1.25-.3,1.78-1.65l3.28-8.22.82-.21c1,2.8,2,5.58,3.05,8.34.55,1.4.76,1.61,1.76,1.74v.56Zm-1.36-7.71h-.05c-.45,1.16-.85,2.32-1.27,3.45H424Z"/><path class="cls-3" d="M438,38.09c-.11.59-.45,2.24-.59,2.7h-7.8v-.56c1.39-.11,1.55-.27,1.55-1.65v-2l-1.6,1.07v-.83l1.6-1.08V32.6c0-1.36-.13-1.54-1.36-1.65v-.56h4.92l0,.56c-1.23.11-1.37.29-1.37,1.65v1.79L435.46,33v.87l-2.13,1.41v3.47c0,.75.06,1.1.4,1.25a3.67,3.67,0,0,0,1.23.13,2,2,0,0,0,1.6-.53,5.7,5.7,0,0,0,.85-1.63Z"/><path class="cls-3" d="M371.46,62v-.7c1.5-.16,1.62-.3,1.6-2.14l0-7.7h-.1l-4.42,10.4h-.56l-4.08-10.2h-.08l-.24,5.22a20.37,20.37,0,0,0,0,3.22c.08.9.48,1.08,1.8,1.2V62h-4.8v-.7c1.12-.1,1.5-.46,1.62-1.16a31.34,31.34,0,0,0,.42-3.78l.32-3.94c.16-2.28,0-2.56-1.7-2.72V49h4.14l3.86,8.76L373.12,49h4v.7c-1.6.16-1.68.32-1.64,2l.18,7.48c0,1.84.14,2,1.7,2.14V62Z"/><path class="cls-3" d="M384.36,62v-.56c.94-.14,1-.34.77-1-.16-.48-.4-1.15-.64-1.81h-3.08c-.17.5-.38,1.07-.57,1.71s-.2,1,1,1.14V62h-3.58v-.56c1.06-.13,1.25-.3,1.78-1.65l3.28-8.22.82-.21c1,2.8,2,5.58,3.05,8.34.55,1.4.76,1.61,1.77,1.74V62ZM383,54.28H383c-.45,1.16-.85,2.32-1.27,3.45h2.5Z"/><path class="cls-3" d="M397.35,54.32a3.47,3.47,0,0,0-.7-1.64c-.28-.29-.69-.39-1.62-.39h-.74v7.57c0,1.36.16,1.46,1.57,1.57V62h-5.22v-.56c1.35-.11,1.51-.21,1.51-1.57V52.29h-.55c-1.31,0-1.6.18-1.84.43a4.22,4.22,0,0,0-.67,1.62h-.58c.07-1.17.16-2.34.2-3.15h.38c.26.37.47.4.91.4h6.44a1.08,1.08,0,0,0,.93-.4h.38c0,.67.1,2.08.18,3.1Z"/><path class="cls-3" d="M407.46,59.33c-.09.72-.43,2.18-.56,2.66h-8.16v-.56c1.36-.11,1.52-.21,1.52-1.57V53.72c0-1.4-.16-1.48-1.3-1.57v-.56h7.54c0,.29.1,1.41.16,2.4l-.57.08a3.35,3.35,0,0,0-.66-1.38c-.27-.29-.7-.4-1.6-.4h-.77c-.59,0-.66,0-.66.56v3.4h1.08c1.34,0,1.55-.08,1.77-1.21h.58v3.24h-.58c-.22-1.15-.41-1.22-1.77-1.22H402.4v2.77c0,.75.07,1.15.39,1.31a4.18,4.18,0,0,0,1.44.16,2.35,2.35,0,0,0,1.78-.51,6,6,0,0,0,.89-1.57Z"/><path class="cls-3" d="M416.65,62v-.56c1.2-.13,1.29-.24,1.28-1.71l0-6.16h-.08l-3.53,8.32h-.45l-3.27-8.16h-.06l-.19,4.17a15,15,0,0,0,0,2.58c.06.72.38.87,1.44,1V62h-3.84v-.56c.89-.08,1.2-.37,1.29-.93a23.38,23.38,0,0,0,.34-3l.25-3.16c.13-1.82,0-2-1.36-2.17v-.56h3.32l3.09,7,3.13-7h3.22v.56c-1.28.13-1.34.25-1.31,1.58l.14,6c0,1.47.12,1.58,1.36,1.71V62Z"/><path class="cls-3" d="M428.24,62v-.56c.95-.14,1-.34.77-1-.16-.48-.4-1.15-.64-1.81H425.3c-.18.5-.39,1.07-.58,1.71s-.19,1,1,1.14V62h-3.59l0-.56c1.06-.13,1.25-.3,1.78-1.65l3.28-8.22.81-.21c1,2.8,2,5.58,3.06,8.34.55,1.4.75,1.61,1.76,1.74V62Zm-1.36-7.71h0c-.45,1.16-.85,2.32-1.27,3.45h2.5Z"/><path class="cls-3" d="M441.24,54.32a3.36,3.36,0,0,0-.71-1.64c-.27-.29-.69-.39-1.61-.39h-.74v7.57c0,1.36.16,1.46,1.57,1.57V62h-5.22v-.56c1.34-.11,1.5-.21,1.5-1.57V52.29h-.54c-1.31,0-1.6.18-1.84.43a4.07,4.07,0,0,0-.67,1.62h-.58c.07-1.17.16-2.34.19-3.15H433c.25.37.46.4.91.4h6.43a1.06,1.06,0,0,0,.93-.4h.39c0,.67.09,2.08.17,3.1Z"/><path class="cls-3" d="M452.85,52.15c-1,.11-1.34.4-1.92,1.34s-1,1.63-1.79,3.14a1.93,1.93,0,0,0-.29,1.1v2.05c0,1.44.13,1.54,1.55,1.67V62h-5.2v-.54c1.36-.11,1.51-.23,1.51-1.67V58a1.72,1.72,0,0,0-.21-.87c-.43-.88-1-2-2-3.63-.59-1.06-.86-1.23-1.74-1.36v-.56h4.58v.56c-1.06.14-1,.35-.76.93.57,1.1,1.21,2.28,1.83,3.47.46-.91,1.28-2.42,1.66-3.39.26-.64.24-.85-.94-1v-.56h3.71Z"/><path class="cls-3" d="M461,62c-.68-.94-2-2.82-3.15-4.46-.33-.5-.54-.6-.78-.56v2.88c0,1.36.14,1.47,1.37,1.58V62h-4.78v-.56c1.15-.11,1.31-.22,1.31-1.58V53.73c0-1.36-.14-1.47-1.34-1.58v-.56h4.7v.56c-1.13.11-1.26.22-1.26,1.58v2.72a2.88,2.88,0,0,0,1.21-.85A22.45,22.45,0,0,0,460.49,53c.38-.51.35-.74-.41-.83l-.28-.05v-.56H464v.56a3.71,3.71,0,0,0-2.53,1.12c-.94.86-1.62,1.63-2.34,2.38,1,1.52,2.21,3.14,3.36,4.6a2.56,2.56,0,0,0,1.73,1.18V62Z"/><path class="cls-3" d="M464.85,62v-.56c1.18-.11,1.33-.22,1.33-1.57V53.73c0-1.36-.15-1.47-1.33-1.58v-.56h4.8v.56c-1.18.11-1.33.22-1.33,1.58v6.13c0,1.35.15,1.46,1.33,1.57V62Z"/><path class="cls-3" d="M360.79,83.19v-.56c1.18-.11,1.33-.22,1.33-1.57V74.93c0-1.36-.15-1.47-1.33-1.58v-.56h4.8v.56c-1.19.11-1.33.22-1.33,1.58v6.13c0,1.35.14,1.46,1.33,1.57v.56Z"/><path class="cls-3" d="M370.46,83.19v-.7c1.48-.14,1.66-.28,1.66-2V72.87c0-1.7-.18-1.84-1.66-2v-.7h6v.7c-1.48.14-1.66.28-1.66,2v7.66c0,1.68.18,1.82,1.66,2v.7Z"/><path class="cls-3" d="M388.85,73.35c-.87.05-1.2.25-1.28,1a21.89,21.89,0,0,0-.15,2.66v6.35h-.77l-6.65-8H380V79a21.57,21.57,0,0,0,.13,2.59c.08.71.35,1,1.53,1.06v.56h-3.92v-.56c.9-.06,1.26-.32,1.33-1a19.37,19.37,0,0,0,.16-2.64V75.64c0-1,0-1.35-.34-1.72a1.62,1.62,0,0,0-1.33-.57v-.56h3l6.11,7h.06V77c0-1.41-.09-2.16-.12-2.63-.08-.69-.42-1-1.59-1v-.56h3.91Z"/><path class="cls-3" d="M396.93,75.33a3.43,3.43,0,0,0-.65-1.37c-.33-.36-.76-.47-1.66-.47h-.8c-.56,0-.62,0-.62.56v3.54h1.29c1.44,0,1.59-.14,1.78-1.17h.58v3.19h-.58c-.18-1.09-.34-1.22-1.78-1.22H393.2v2.53c0,1.5.12,1.6,1.52,1.71v.56h-5v-.56c1.17-.11,1.33-.21,1.33-1.71V75c0-1.44-.16-1.55-1.33-1.65v-.57h7.59c0,.27.1,1.5.18,2.43Z"/><path class="cls-3" d="M409.55,77.88a5.46,5.46,0,1,1-5.3-5.33A5.18,5.18,0,0,1,409.55,77.88Zm-8.47-.18c0,2.74,1.22,5.06,3.27,5.06,1.52,0,2.75-1.49,2.75-4.43,0-3.19-1.29-5.11-3.14-5.11C402.35,73.22,401.08,74.93,401.08,77.7Z"/><path class="cls-3" d="M420.48,83.34l-.48,0c-2-.1-2.64-.54-3.28-1.55-.42-.66-.85-1.52-1.32-2.36a1.09,1.09,0,0,0-1-.7H414v2.34c0,1.31.16,1.47,1.36,1.58v.56h-4.83v-.56c1.2-.11,1.38-.27,1.38-1.58V74.9c0-1.28-.15-1.44-1.32-1.55v-.56h4.5a4.71,4.71,0,0,1,2.85.61,2.42,2.42,0,0,1,1.09,2.12,2.78,2.78,0,0,1-2,2.61c.22.47.83,1.54,1.3,2.28a12.24,12.24,0,0,0,1.23,1.72,2.28,2.28,0,0,0,1,.69Zm-6-5.25a2.09,2.09,0,0,0,2.34-2.34c0-1.7-1-2.32-1.89-2.32-.4,0-.63.06-.72.16s-.15.25-.15.59v3.91Z"/><path class="cls-3" d="M429.58,83.19v-.56c1.2-.13,1.3-.24,1.28-1.71l0-6.16h-.08l-3.54,8.32h-.45l-3.26-8.16h-.06l-.2,4.17a17.44,17.44,0,0,0,0,2.58c.07.72.39.86,1.44,1v.56h-3.84v-.56c.9-.08,1.2-.37,1.3-.93a25.46,25.46,0,0,0,.34-3l.25-3.16c.13-1.82,0-2-1.36-2.17v-.56h3.31l3.09,7,3.14-7h3.22v.56c-1.28.13-1.35.25-1.31,1.58l.14,6c0,1.47.11,1.58,1.36,1.71v.56Z"/><path class="cls-3" d="M441.18,83.19v-.56c.94-.14,1-.34.77-1-.16-.48-.4-1.15-.64-1.81h-3.07c-.18.5-.39,1.07-.58,1.71s-.19,1,1,1.14v.56h-3.58l0-.56c1.05-.13,1.24-.3,1.77-1.65l3.28-8.22.82-.21c1,2.8,2,5.58,3.06,8.34.54,1.4.75,1.61,1.76,1.74v.56Zm-1.36-7.71h-.05c-.45,1.16-.85,2.32-1.26,3.45H441Z"/><path class="cls-3" d="M454.17,75.52a3.37,3.37,0,0,0-.7-1.64c-.27-.29-.69-.39-1.62-.39h-.73v7.57c0,1.36.16,1.46,1.56,1.57v.56h-5.21v-.56c1.34-.11,1.5-.21,1.5-1.57V73.49h-.54c-1.32,0-1.6.18-1.84.43a4,4,0,0,0-.68,1.62h-.57c.06-1.17.16-2.34.19-3.15h.38c.26.37.47.4.92.4h6.43a1.07,1.07,0,0,0,.93-.4h.38c0,.67.1,2.08.18,3.1Z"/><path class="cls-3" d="M465.79,73.35c-1,.11-1.34.4-1.92,1.34s-1,1.63-1.79,3.14a1.86,1.86,0,0,0-.29,1.1v2c0,1.44.13,1.54,1.55,1.67v.54h-5.2v-.54c1.36-.12,1.5-.23,1.5-1.67V79.21a1.72,1.72,0,0,0-.2-.87c-.44-.88-1-2-2-3.63-.59-1.06-.86-1.23-1.74-1.36v-.56h4.57v.56c-1,.14-1,.35-.75.93.56,1.1,1.2,2.28,1.83,3.47.46-.91,1.28-2.42,1.66-3.39.26-.64.24-.85-.94-1v-.56h3.71Z"/><path class="cls-3" d="M473.9,83.19c-.69-.94-2-2.82-3.15-4.46-.34-.5-.55-.6-.79-.56v2.88c0,1.36.15,1.47,1.38,1.58v.56h-4.79v-.56c1.16-.11,1.32-.22,1.32-1.58V74.93c0-1.36-.15-1.47-1.35-1.58v-.56h4.71v.56c-1.14.11-1.27.22-1.27,1.58v2.72a2.84,2.84,0,0,0,1.22-.85,23.2,23.2,0,0,0,2.24-2.57c.38-.51.35-.74-.4-.83l-.29-.05v-.56h4.16v.56a3.67,3.67,0,0,0-2.52,1.12c-.95.86-1.62,1.63-2.34,2.38,1,1.52,2.21,3.14,3.36,4.6a2.6,2.6,0,0,0,1.73,1.18v.56Z"/><path class="cls-3" d="M477.78,83.19v-.56c1.19-.11,1.33-.22,1.33-1.57V74.93c0-1.36-.14-1.47-1.33-1.58v-.56h4.81v.56c-1.19.11-1.33.22-1.33,1.58v6.13c0,1.35.14,1.46,1.33,1.57v.56Z"/></svg>